PathFileType	4	(X/Y/Z)	4_coords_data.trc
DataRate	CameraRate	NumFrames	NumMarkers	Units	OrigDataRate	OrigDataStartFrame	OrigNumFrames
30.0	30.0	5	21	m	30.0	41	50
Frame#	Time	THUMB_TIP	THUMB_IP	THUMB_MCP	THUMB_CMC	INDEX_TIP	INDEX_DIP	INDEX_PIP	INDEX_MCP	MIDDLE_TIP	MIDDLE_DIP	MIDDLE_PIP	MIDDLE_MCP	RING_TIP	RING_DIP	RING_PIP	RING_MCP	PINKY_TIP	PINKY_DIP	PINKY_PIP	PINKY_MCP	WRIST
X1	Y1	Z1	X2	Y2	Z2	X3	Y3	Z3	X4	Y4	Z4	X5	Y5	Z5	X6	Y6	Z6	X7	Y7	Z7	X8	Y8	Z8	X9	Y9	Z9	X10	Y10	Z10	X11	Y11	Z11	X12	Y12	Z12	X13	Y13	Z13	X14	Y14	Z14	X15	Y15	Z15	X16	Y16	Z16	X17	Y17	Z17	X18	Y18	Z18	X19	Y19	Z19	X20	Y20	Z20	X21	Y21	Z21
39	1.3333333333333275	0.5191995180932246	-0.02856006314337811	-0.15803775011067744	0.5069620902271433	-0.028715459626603268	-0.13858983991046683	0.481745520389664	-0.030988090054704487	-0.12048515110980548	0.47616797519357756	-0.029237191249630867	-0.07626168061098543	0.5734470446622016	0.017501811073470708	-0.15885159398133997	0.5571191262809866	0.01976101263271568	-0.15134858860675243	0.5346420738292802	0.020869506539167637	-0.14014309052132162	0.49840797343421606	0.014462054737047758	-0.11870315992525987	0.5929857068573163	0.025690572489955432	-0.1415124069358057	0.5766334690439707	0.025600298757056272	-0.1337280528104503	0.5503700749097462	0.025990458225898738	-0.12109906020853398	0.5112300790957601	0.02094451596077873	-0.10015276900130038	0.5979892827599247	0.020251803229836107	-0.1129350116842553	0.5825876671739099	0.025282188698316332	-0.10503023721693966	0.560259684382397	0.030318719154874163	-0.09521827898108909	0.523888615584637	0.018011093859023664	-0.08255381894184743	0.5945085761508654	0.00451231749003167	-0.08138615257247234	0.5813391584753337	0.011831198022233314	-0.07326208795906913	0.5627582002848414	0.018252640480082127	-0.06589153245193718	0.528116609921396	0.008659360228659763	-0.06292292299481483	0.4622830810018609	-0.023011742144276925	-0.051989820119430985
40	1.3666666666666607	0.5192482758172468	-0.028294796177864345	-0.15798171949582307	0.506958144122692	-0.02851499159051507	-0.13856769938378166	0.48169445798890476	-0.030821073802181687	-0.12053306193895008	0.4761105418082163	-0.029193087122690864	-0.07630570005223508	0.5733508141076473	0.017609282551365513	-0.15882362133116062	0.5570313964441049	0.01992341709933687	-0.15131886361243652	0.5345564894900392	0.021066359363479115	-0.14011252284540093	0.4983370444841969	0.014593802072193074	-0.1186673858773192	0.5929059858384077	0.025907799805303444	-0.141480303657647	0.5765571128161874	0.02580405705727662	-0.13368905290147526	0.5502984441219537	0.026179528258333806	-0.12104979304246236	0.5111662195277472	0.0210677925590399	-0.1001049350231501	0.5979613197829436	0.02063927189815362	-0.11296094324185352	0.5825352594613623	0.025566431698608727	-0.10503883750816656	0.5601852343053507	0.03047220018270469	-0.09521082702251377	0.5238423652191209	0.018097821238526213	-0.08253047031116556	0.5945488767510322	0.004901458344316323	-0.08142057254660151	0.5813127557908063	0.012099150249587631	-0.07329663672933528	0.5626977374877609	0.01841617825037456	-0.06592179640465295	0.5280876495746168	0.008716406445596014	-0.06293186453591959	0.4622830810018609	-0.023011742144276925	-0.051989820119430985
42	1.400000000000001	0.5191287750299105	-0.02824382884654908	-0.15804189238242844	0.5068860170587115	-0.028483985570232906	-0.1385981992659777	0.48161457224477977	-0.030783535428866138	-0.1205736008664555	0.4760404430191404	-0.029201295209316802	-0.076343344262367	0.5732219198549323	0.017540787482694165	-0.15897988404923652	0.5569179406950484	0.019885659840235714	-0.15145114994708428	0.5344615401290814	0.021053504618274044	-0.14021032946122802	0.49827610330433203	0.01457975962509428	-0.11870821604032517	0.5928098612897513	0.026001118612057672	-0.14163776364811234	0.5764728422750122	0.025858670276313944	-0.13382229704760176	0.5502308740314619	0.026207048186237092	-0.12114762602479498	0.5111279779440115	0.021051332012983814	-0.10015881878581828	0.5979441031817256	0.02083170210193397	-0.11313004462733084	0.5824939790608104	0.025661385426003824	-0.10519481787332335	0.560130700132737	0.03047414214902655	-0.09535098186746704	0.5238192712676081	0.018082322375690518	-0.08259779518813698	0.5945916841417846	0.005125618216165084	-0.08153297420973016	0.5813057138065707	0.012256203678864153	-0.07343126184684318	0.5626595180192178	0.01849039608108971	-0.0660646990967042	0.5280780579147966	0.008707178462659337	-0.06301597459672498	0.4622830810018609	-0.023011742144276925	-0.051989820119430985
43	1.4333333333333345	0.5189289032353189	-0.028258747680964702	-0.1581552614971001	0.5067762202686554	-0.028506106331084302	-0.13865523302507016	0.481515871481602	-0.030778470413022063	-0.12061164300990063	0.4759723177889119	-0.029221134114780334	-0.07637666006528493	0.5731216825086897	0.01745134096980072	-0.15917013736680558	0.5568327546305768	0.019803111228690606	-0.1516110365452104	0.5343971927898131	0.02097556138312595	-0.14032915910727328	0.49824860808550364	0.014508460209725849	-0.11876315529830647	0.5927505021014541	0.026091511955993685	-0.14180533890219643	0.5764245688693119	0.025888110939475073	-0.13396808605913238	0.550197755103805	0.026183948089697262	-0.12126075470711495	0.5111241854832982	0.0209777959110119	-0.10022982373381328	0.5979742685946323	0.021027627231631207	-0.1132964948571038	0.5824877088541197	0.025730721891488062	-0.10535625757954314	0.560101895971711	0.03042220716830879	-0.09550509894255232	0.5238190689725835	0.018022414672892673	-0.0826784686359594	0.594678092588394	0.00536370312286194	-0.08160043309812204	0.5813229844764939	0.01241109983702049	-0.07353970813862076	0.5626324115291668	0.018544052462173055	-0.06620067591371026	0.5280809746630113	0.008668984676750924	-0.063107991365071	0.4622830810018609	-0.023011742144276925	-0.051989820119430985
44	1.4666666666666677	0.5187084298965636	-0.028303381499669045	-0.1582822585325441	0.506659102744874	-0.028551364526449352	-0.13871820425920947	0.481417906346429	-0.030789128180766956	-0.12064351427009667	0.47591564772929995	-0.02924223384586022	-0.07640300943542211	0.5730507832693993	0.01736276112484858	-0.1593548752882443	0.5567748895653495	0.01970691920773715	-0.15176539526541682	0.5343590393591615	0.0208733994050172	-0.14044378687777587	0.4982449999581062	0.014415548432600178	-0.11881721958296265	0.5927187650046094	0.026183979515974065	-0.14195751603708048	0.576402597219006	0.025910895460544037	-0.13410206608875136	0.5501885237124431	0.02614295129949218	-0.121367151472621	0.511142229595562	0.02088128698178293	-0.10029941012842924	0.5980269417270098	0.021216412877992807	-0.11344354667063633	0.582500512836859	0.025787008498739605	-0.10550379468517107	0.5600889612329378	0.030349853652328007	-0.09565073537300006	0.5238320272445379	0.017944559153008743	-0.08275638621742143	0.5947776470022856	0.005600034008318211	-0.08163579193448889	0.581350085896164	0.012562220410184177	-0.07362151946301365	0.5626115269128933	0.018590357385377954	-0.0663180962355962	0.5280908060923253	0.008618294452392261	-0.06319379697192523	0.4622830810018609	-0.023011742144276925	-0.051989820119430985
